<svg width="222" height="65" viewBox="0 0 222 65" fill="none" xmlns="http://www.w3.org/2000/svg">
<path d="M196.498 52.68C198.305 54.543 200.598 55.4745 203.377 55.4745C206.158 55.4745 208.463 54.543 210.292 52.68C212.122 50.817 213.036 48.4229 213.036 45.4976C213.036 42.5741 212.121 40.1804 210.291 38.3166C208.462 36.4527 206.158 35.5208 203.378 35.5208C200.598 35.5208 198.305 36.4527 196.5 38.3166C194.693 40.1796 193.789 42.5733 193.789 45.4976C193.789 48.4229 194.692 50.817 196.498 52.68ZM213.036 27.8082H222V63.1871H213.036V59.0126C210.35 62.4566 206.575 64.1786 201.711 64.1786C197.078 64.1786 193.106 62.374 189.794 58.7647C186.481 55.1571 184.825 50.7348 184.825 45.4976C184.825 40.2622 186.481 35.8398 189.794 32.2306C193.106 28.6221 197.078 26.8179 201.711 26.8179C206.575 26.8179 210.35 28.5399 213.036 31.9839V27.8082Z" fill="#4072D6"/>
<path d="M166.763 64.1822C161.528 64.1822 157.163 62.3899 153.665 58.8053C150.168 55.2199 148.419 50.7852 148.419 45.5012C148.419 40.2181 150.168 35.7842 153.665 32.1996C157.163 28.615 161.528 26.8228 166.763 26.8228C170.145 26.8228 173.225 27.6482 176.004 29.2991C178.784 30.9491 180.892 33.1661 182.328 35.9499L174.614 40.5498C173.919 39.0864 172.866 37.9305 171.453 37.082C170.04 36.2327 168.454 35.8081 166.694 35.8081C164.007 35.8081 161.784 36.7165 160.022 38.5335C158.263 40.3488 157.383 42.6714 157.382 45.5012C157.383 48.285 158.263 50.5846 160.022 52.3999C161.782 54.2169 164.006 55.1254 166.694 55.1254C168.5 55.1254 170.109 54.7122 171.523 53.886C172.935 53.0614 173.989 51.9177 174.684 50.4551L182.466 54.9835C180.939 57.7665 178.785 59.9954 176.004 61.6701C173.225 63.344 170.144 64.1814 166.763 64.1822Z" fill="#4072D6"/>
<path d="M133.062 63.1892V27.8103H142.025V63.1892H133.062Z" fill="#4072D6"/>
<path d="M117.294 34.6029C118.129 32.3387 119.507 30.641 121.428 29.5097C123.352 28.376 125.494 27.8095 127.857 27.8103V37.9992C125.124 37.6687 122.68 38.2348 120.525 39.6974C118.371 41.1608 117.294 43.5903 117.294 46.9858V63.1904H108.331V27.8103H117.294V34.6029Z" fill="#4072D6"/>
<path d="M76.8834 52.5049C78.6669 54.3448 80.9021 55.2644 83.5889 55.2636C86.275 55.2636 88.5215 54.344 90.3284 52.5049C92.1352 50.6649 93.0387 48.33 93.0387 45.5001C93.0387 42.6694 92.1352 40.3345 90.3284 38.4954C88.5215 36.6537 86.275 35.7334 83.5889 35.7342C80.9021 35.7342 78.6669 36.6542 76.8834 38.4941C75.0992 40.3349 74.207 42.6699 74.207 45.4989C74.207 48.3304 75.0992 50.6665 76.8834 52.5049ZM96.6512 58.7647C93.0851 62.374 88.731 64.1786 83.5889 64.1786C78.4469 64.1786 74.1041 62.374 70.5606 58.7647C67.0163 55.1571 65.2441 50.7348 65.2441 45.4976C65.2441 40.2622 67.0163 35.8398 70.5606 32.2306C74.1041 28.6221 78.4469 26.8179 83.5889 26.8179C88.7302 26.8179 93.0843 28.6226 96.6512 32.2318C100.218 35.8394 102.002 40.2614 102.002 45.4976C102.002 50.7348 100.218 55.1571 96.6512 58.7647Z" fill="#4072D6"/>
<path d="M61.7626 36.5857H53.9127V51.303C53.9127 52.5305 54.2134 53.4266 54.8149 53.9915C55.418 54.5588 56.298 54.8773 57.455 54.9472C58.6135 55.0179 60.0498 55.0064 61.7639 54.9127V63.1901C55.6029 63.8988 51.2601 63.3093 48.7355 61.4217C46.2109 59.5348 44.9486 56.162 44.9486 51.303V36.5857H38.9043V27.8112H44.9486V20.6659L53.9127 17.9059V27.8112H61.7639L61.7626 36.5857Z" fill="#4072D6"/>
<path d="M24.7314 63.1892V27.8103H33.6931V63.1892H24.7314Z" fill="#4072D6"/>
<path d="M8.9629 34.6029C9.79771 32.3387 11.1759 30.641 13.0974 29.5097C15.0197 28.3768 17.1624 27.8103 19.5256 27.8103V37.9992C16.7919 37.6696 14.348 38.2356 12.1939 39.6974C10.0407 41.1608 8.9637 43.5903 8.9629 46.9858V63.1904H0V27.8103H8.9629V34.6029Z" fill="#4072D6"/>
<path fill-rule="evenodd" clip-rule="evenodd" d="M127.267 0.00123726H147.827C153.84 0.00123726 158.758 5.00815 158.758 11.1311C158.758 13.9848 157.689 16.5943 155.941 18.57L147.239 27.432V22.2635H127.266C121.254 22.2635 116.335 17.2541 116.335 11.1324C116.335 5.00938 121.254 0 127.266 0M126.944 14.1599C126.146 14.1599 125.454 13.8615 124.867 13.2646C124.281 12.6677 123.988 11.9627 123.988 11.1496C123.988 10.3365 124.281 9.62536 124.867 9.01614C125.453 8.4061 126.145 8.10109 126.944 8.10109C127.767 8.10109 128.472 8.4061 129.059 9.01614C129.645 9.62536 129.937 10.3365 129.937 11.1496C129.937 11.9636 129.645 12.6686 129.059 13.2646C128.472 13.8615 127.767 14.1599 126.944 14.1599ZM148.11 14.1599C147.311 14.1599 146.619 13.8615 146.033 13.2646C145.447 12.6677 145.154 11.9627 145.154 11.1496C145.154 10.3365 145.447 9.62536 146.033 9.01614C146.619 8.4061 147.312 8.10109 148.11 8.10109C148.934 8.10109 149.639 8.4061 150.225 9.01614C150.811 9.62536 151.104 10.3365 151.104 11.1496C151.104 11.9636 150.811 12.6686 150.225 13.2646C149.639 13.8615 148.934 14.1599 148.11 14.1599ZM137.527 14.1599C136.729 14.1599 136.037 13.8615 135.45 13.2646C134.864 12.6677 134.571 11.9627 134.571 11.1496C134.571 10.3365 134.864 9.62536 135.45 9.01614C136.036 8.4061 136.728 8.10109 137.527 8.10109C138.35 8.10109 139.055 8.4061 139.641 9.01614C140.228 9.62536 140.521 10.3365 140.521 11.1496C140.521 11.9636 140.228 12.6686 139.641 13.2646C139.055 13.8615 138.35 14.1599 137.527 14.1599Z" fill="#4072D6"/>
</svg>
